<svg width="512" height="512" viewBox="0 0 512 512" fill="none" xmlns="http://www.w3.org/2000/svg">
<rect width="512" height="512" rx="110" fill="#2F2F2F"/>
<path d="M103.5 210.25C115.634 210.25 127.27 215.07 135.85 223.65C144.43 232.23 149.25 243.866 149.25 256C149.25 268.134 144.43 279.77 135.85 288.35C127.27 296.93 115.634 301.75 103.5 301.75V332.25C103.5 340.339 106.713 348.097 112.433 353.817C118.153 359.537 125.911 362.75 134 362.75H378C386.089 362.75 393.847 359.537 399.567 353.817C405.287 348.097 408.5 340.339 408.5 332.25V301.75C396.366 301.75 384.73 296.93 376.15 288.35C367.57 279.77 362.75 268.134 362.75 256C362.75 243.866 367.57 232.23 376.15 223.65C384.73 215.07 396.366 210.25 408.5 210.25V179.75C408.5 171.661 405.287 163.903 399.567 158.183C393.847 152.463 386.089 149.25 378 149.25H134C125.911 149.25 118.153 152.463 112.433 158.183C106.713 163.903 103.5 171.661 103.5 179.75V210.25Z" stroke="#FAFAFA" stroke-width="24" stroke-linecap="round" stroke-linejoin="round"/>
<path d="M271.25 149.25V179.75" stroke="#FAFAFA" stroke-width="24" stroke-linecap="round" stroke-linejoin="round"/>
<path d="M271.25 332.25V362.75" stroke="#FAFAFA" stroke-width="24" stroke-linecap="round" stroke-linejoin="round"/>
<path d="M271.25 240.75V271.25" stroke="#FAFAFA" stroke-width="24" stroke-linecap="round" stroke-linejoin="round"/>
</svg>
